<svg width="32" height="32" viewBox="0 0 32 32" fill="none" xmlns="http://www.w3.org/2000/svg">
  <rect width="32" height="32" rx="8" fill="white"/>
  <path d="M10.096 27V24.8742L14.704 24.5521H17.136L21.936 24.8742V27H10.096ZM12.688 27C12.7093 25.9264 12.72 24.8635 12.72 23.8113C12.7413 22.7377 12.752 21.6534 12.752 20.5583C12.752 19.4632 12.752 18.3788 12.752 17.3052V15.6948C12.752 14.6212 12.752 13.5475 12.752 12.4739C12.752 11.3788 12.7413 10.2945 12.72 9.22086C12.72 8.14724 12.7093 7.07362 12.688 6H19.344C19.3227 7.05215 19.3013 8.12577 19.28 9.22086C19.28 10.2945 19.28 11.3681 19.28 12.4417C19.28 13.5153 19.28 14.5997 19.28 15.6948V17.273C19.28 18.3466 19.28 19.431 19.28 20.5261C19.28 21.5997 19.28 22.6733 19.28 23.7469C19.3013 24.8206 19.3227 25.9049 19.344 27H12.688ZM6 12.2485L6.096 6H25.936L26 12.2485H23.12L22.224 6.28988L24.496 8.09356H7.504L9.808 6.28988L8.912 12.2485H6Z" fill="#21201c"/>
</svg>
